<svg xmlns="http://www.w3.org/2000/svg" xmlns:xlink="http://www.w3.org/1999/xlink" width="500" zoomAndPan="magnify" viewBox="0 0 375 374.999991" height="500" preserveAspectRatio="xMidYMid meet" version="1.0"><defs><g/></defs><g fill="#283593" fill-opacity="1"><g transform="translate(62.640649, 199.779318)"><g><path d="M 6.40625 -59.59375 L 57.953125 -59.59375 L 57.953125 -45.3125 L 25.546875 -45.3125 L 25.546875 -37.078125 L 53.28125 -37.078125 L 53.28125 -23.390625 L 25.546875 -23.390625 L 25.546875 -14.296875 L 58.5625 -14.296875 L 58.5625 0 L 6.40625 0 Z M 6.40625 -59.59375 "/></g></g></g><g fill="#283593" fill-opacity="1"><g transform="translate(120.238032, 199.779318)"><g><path d="M 17.328125 0 L 0 -45.734375 L 18.53125 -45.734375 L 26.9375 -17.234375 L 27.546875 -17.234375 L 35.953125 -45.734375 L 52.921875 -45.734375 L 35.421875 0 Z M 17.328125 0 "/></g></g></g><g fill="#283593" fill-opacity="1"><g transform="translate(168.221337, 199.779318)"><g><path d="M 28.84375 -46.78125 C 37.21875 -46.78125 43.613281 -44.816406 48.03125 -40.890625 C 52.445312 -36.960938 54.65625 -30.957031 54.65625 -22.875 L 54.65625 -19.921875 L 20.359375 -19.921875 C 20.359375 -16.628906 21.09375 -14.144531 22.5625 -12.46875 C 24.039062 -10.800781 26.367188 -9.96875 29.546875 -9.96875 C 32.429688 -9.96875 34.550781 -10.570312 35.90625 -11.78125 C 37.257812 -12.988281 37.9375 -14.601562 37.9375 -16.625 L 54.65625 -16.625 C 54.65625 -11.082031 52.546875 -6.75 48.328125 -3.625 C 44.117188 -0.507812 37.972656 1.046875 29.890625 1.046875 C 21.398438 1.046875 14.816406 -0.929688 10.140625 -4.890625 C 5.460938 -8.847656 3.125 -14.84375 3.125 -22.875 C 3.125 -30.726562 5.40625 -36.675781 9.96875 -40.71875 C 14.53125 -44.757812 20.820312 -46.78125 28.84375 -46.78125 Z M 29.546875 -35.78125 C 24.109375 -35.78125 21.070312 -33.207031 20.4375 -28.0625 L 37.25 -28.0625 C 37.25 -30.4375 36.566406 -32.316406 35.203125 -33.703125 C 33.847656 -35.085938 31.960938 -35.78125 29.546875 -35.78125 Z M 29.546875 -35.78125 "/></g></g></g><g fill="#283593" fill-opacity="1"><g transform="translate(221.054998, 199.779318)"><g><path d="M 36.734375 -46.78125 C 42.046875 -46.78125 46.03125 -45.304688 48.6875 -42.359375 C 51.34375 -39.410156 52.671875 -35.164062 52.671875 -29.625 L 52.671875 0 L 35.421875 0 L 35.421875 -27.546875 C 35.421875 -29.503906 34.914062 -31.078125 33.90625 -32.265625 C 32.894531 -33.453125 31.46875 -34.046875 29.625 -34.046875 C 27.488281 -34.046875 25.753906 -33.351562 24.421875 -31.96875 C 23.097656 -30.582031 22.4375 -28.878906 22.4375 -26.859375 L 22.4375 0 L 5.203125 0 L 5.203125 -45.734375 L 19.3125 -45.734375 L 20.4375 -38.8125 C 22.226562 -41.238281 24.582031 -43.171875 27.5 -44.609375 C 30.414062 -46.054688 33.492188 -46.78125 36.734375 -46.78125 Z M 36.734375 -46.78125 "/></g></g></g><g fill="#283593" fill-opacity="1"><g transform="translate(273.888658, 199.779318)"><g><path d="M 35.6875 -45.734375 L 35.6875 -34.046875 L 25.984375 -34.046875 L 25.984375 -16.625 C 25.984375 -14.550781 26.328125 -13.035156 27.015625 -12.078125 C 27.710938 -11.128906 28.988281 -10.65625 30.84375 -10.65625 L 35.6875 -10.65625 L 35.6875 -0.515625 C 34.300781 -0.0546875 32.507812 0.316406 30.3125 0.609375 C 28.125 0.898438 26.21875 1.046875 24.59375 1.046875 C 19.519531 1.046875 15.609375 0.125 12.859375 -1.71875 C 10.117188 -3.570312 8.75 -6.722656 8.75 -11.171875 L 8.75 -34.046875 L 2.34375 -34.046875 L 2.34375 -45.734375 L 9.4375 -45.734375 L 13.171875 -59.59375 L 25.984375 -59.59375 L 25.984375 -45.734375 Z M 35.6875 -45.734375 "/></g></g></g><g fill="#283593" fill-opacity="1"><g transform="translate(156.890136, 233.545605)"><g><path d="M 13.5625 -21.5 C 16.164062 -21.5 18.128906 -20.84375 19.453125 -19.53125 C 20.773438 -18.21875 21.359375 -16.492188 21.203125 -14.359375 L 21.171875 -14.046875 L 18.546875 -14.046875 L 18.546875 -14.359375 C 18.546875 -16.128906 18.097656 -17.414062 17.203125 -18.21875 C 16.304688 -19.019531 14.953125 -19.421875 13.140625 -19.421875 C 10.648438 -19.421875 8.617188 -18.378906 7.046875 -16.296875 C 5.484375 -14.210938 4.703125 -11.648438 4.703125 -8.609375 C 4.703125 -6.304688 5.195312 -4.570312 6.1875 -3.40625 C 7.175781 -2.238281 8.554688 -1.65625 10.328125 -1.65625 C 13.484375 -1.65625 15.710938 -3.34375 17.015625 -6.71875 L 17.140625 -7.03125 L 19.765625 -7.03125 L 19.671875 -6.71875 C 19.054688 -4.539062 17.925781 -2.804688 16.28125 -1.515625 C 14.632812 -0.222656 12.476562 0.421875 9.8125 0.421875 C 7.21875 0.421875 5.21875 -0.351562 3.8125 -1.90625 C 2.40625 -3.46875 1.710938 -5.59375 1.734375 -8.28125 C 1.710938 -12.03125 2.820312 -15.171875 5.0625 -17.703125 C 7.3125 -20.234375 10.144531 -21.5 13.5625 -21.5 Z M 13.5625 -21.5 "/></g></g></g><g fill="#283593" fill-opacity="1"><g transform="translate(177.839851, 233.545605)"><g><path d="M 13.65625 -21.5 C 16.34375 -21.5 18.425781 -20.632812 19.90625 -18.90625 C 21.394531 -17.175781 22.140625 -15 22.140625 -12.375 C 22.140625 -10.738281 21.898438 -9.175781 21.421875 -7.6875 C 20.941406 -6.207031 20.238281 -4.847656 19.3125 -3.609375 C 18.394531 -2.378906 17.15625 -1.398438 15.59375 -0.671875 C 14.03125 0.0546875 12.265625 0.421875 10.296875 0.421875 C 7.609375 0.421875 5.519531 -0.441406 4.03125 -2.171875 C 2.539062 -3.898438 1.796875 -6.078125 1.796875 -8.703125 C 1.796875 -10.335938 2.035156 -11.894531 2.515625 -13.375 C 2.992188 -14.863281 3.695312 -16.222656 4.625 -17.453125 C 5.550781 -18.691406 6.789062 -19.675781 8.34375 -20.40625 C 9.90625 -21.132812 11.675781 -21.5 13.65625 -21.5 Z M 10.84375 -1.65625 C 12.226562 -1.65625 13.472656 -1.984375 14.578125 -2.640625 C 15.691406 -3.304688 16.578125 -4.164062 17.234375 -5.21875 C 17.898438 -6.28125 18.40625 -7.425781 18.75 -8.65625 C 19.101562 -9.894531 19.28125 -11.132812 19.28125 -12.375 C 19.28125 -14.507812 18.726562 -16.21875 17.625 -17.5 C 16.519531 -18.78125 15.015625 -19.421875 13.109375 -19.421875 C 11.722656 -19.421875 10.472656 -19.085938 9.359375 -18.421875 C 8.253906 -17.765625 7.367188 -16.90625 6.703125 -15.84375 C 6.046875 -14.789062 5.539062 -13.644531 5.1875 -12.40625 C 4.84375 -11.175781 4.671875 -9.941406 4.671875 -8.703125 C 4.671875 -6.566406 5.21875 -4.859375 6.3125 -3.578125 C 7.414062 -2.296875 8.925781 -1.65625 10.84375 -1.65625 Z M 10.84375 -1.65625 "/></g></g></g><g fill="#283593" fill-opacity="1"><g transform="translate(199.705746, 233.545605)"><g><path d="M 21.8125 -21.078125 L 18.078125 0 L 14.046875 0 L 7.421875 -18.578125 L 4.21875 0 L 1.59375 0 L 5.3125 -21.078125 L 9.34375 -21.078125 L 15.921875 -2.5 L 19.1875 -21.078125 Z M 21.8125 -21.078125 "/></g></g></g><g fill="#283593" fill-opacity="1"><g transform="translate(220.655462, 233.545605)"><g><path d="M 21.8125 -21.078125 L 18.078125 0 L 14.046875 0 L 7.421875 -18.578125 L 4.21875 0 L 1.59375 0 L 5.3125 -21.078125 L 9.34375 -21.078125 L 15.921875 -2.5 L 19.1875 -21.078125 Z M 21.8125 -21.078125 "/></g></g></g><g fill="#283593" fill-opacity="1"><g transform="translate(241.605176, 233.545605)"><g><path d="M 7.578125 -18.9375 L 6.265625 -11.609375 L 16.4375 -11.609375 L 16.0625 -9.46875 L 5.890625 -9.46875 L 4.578125 -2.140625 L 16 -2.140625 L 15.609375 0 L 1.59375 0 L 5.3125 -21.078125 L 19.03125 -21.078125 L 18.640625 -18.9375 Z M 7.578125 -18.9375 "/></g></g></g><g fill="#283593" fill-opacity="1"><g transform="translate(258.768045, 233.545605)"><g><path d="M 13.5625 -21.5 C 16.164062 -21.5 18.128906 -20.84375 19.453125 -19.53125 C 20.773438 -18.21875 21.359375 -16.492188 21.203125 -14.359375 L 21.171875 -14.046875 L 18.546875 -14.046875 L 18.546875 -14.359375 C 18.546875 -16.128906 18.097656 -17.414062 17.203125 -18.21875 C 16.304688 -19.019531 14.953125 -19.421875 13.140625 -19.421875 C 10.648438 -19.421875 8.617188 -18.378906 7.046875 -16.296875 C 5.484375 -14.210938 4.703125 -11.648438 4.703125 -8.609375 C 4.703125 -6.304688 5.195312 -4.570312 6.1875 -3.40625 C 7.175781 -2.238281 8.554688 -1.65625 10.328125 -1.65625 C 13.484375 -1.65625 15.710938 -3.34375 17.015625 -6.71875 L 17.140625 -7.03125 L 19.765625 -7.03125 L 19.671875 -6.71875 C 19.054688 -4.539062 17.925781 -2.804688 16.28125 -1.515625 C 14.632812 -0.222656 12.476562 0.421875 9.8125 0.421875 C 7.21875 0.421875 5.21875 -0.351562 3.8125 -1.90625 C 2.40625 -3.46875 1.710938 -5.59375 1.734375 -8.28125 C 1.710938 -12.03125 2.820312 -15.171875 5.0625 -17.703125 C 7.3125 -20.234375 10.144531 -21.5 13.5625 -21.5 Z M 13.5625 -21.5 "/></g></g></g><g fill="#283593" fill-opacity="1"><g transform="translate(279.717758, 233.545605)"><g><path d="M 20.625 -18.9375 L 13.140625 -18.9375 L 9.78125 0 L 7.140625 0 L 10.515625 -18.9375 L 2.96875 -18.9375 L 3.359375 -21.078125 L 21.015625 -21.078125 Z M 20.625 -18.9375 "/></g></g></g></svg>